<svg width="104" height="65" viewBox="0 0 104 65" fill="none" xmlns="http://www.w3.org/2000/svg">
<path d="M55.7295 44.0014V43.724H55.9297V42.6328H55.7295V42.3555H57.1818V42.8773H56.8667V42.6328H56.3563V43.0135H56.7682V43.2925H56.3563V43.724H56.8667V43.4763H57.1818V44.0014H55.7295Z" fill="#006CB6"/>
<path d="M57.2637 44.0014V43.724H57.5065L57.9069 43.1563L57.5065 42.6328H57.2817V42.3555H58.14V42.6328H57.9841L58.2154 42.9232L58.4238 42.6328H58.2745V42.3555H59.0179V42.6328H58.7898L58.3992 43.1727L58.8292 43.724H59.0671V44.0014H58.181V43.724H58.3467L58.0957 43.3991L57.861 43.724H58.03V44.0014H57.2637Z" fill="#006CB6"/>
<path d="M60.0136 43.1953L59.8758 42.7014L59.7281 43.1953H60.0136ZM60.757 43.7237V44.0011H59.948V43.7237H60.1597L60.0809 43.4382H59.6543L59.5657 43.7237H59.7855V44.0011H59.0586V43.7237H59.2604L59.5821 42.6325H59.3622V42.3535H60.437V42.6325H60.2155L60.5617 43.7237H60.757Z" fill="#006CB6"/>
<path d="M60.8213 44.0014V43.724H61.0363V42.6328H60.8213V42.3555H61.6483L62.0094 43.3187L62.372 42.3555H63.2155V42.6328H63.0022V43.724H63.2155V44.0014H62.3868V43.724H62.5853V42.6328H62.546L62.0356 44.0014H61.8584L61.3415 42.6328H61.3021V43.724H61.5187V44.0014H60.8213Z" fill="#006CB6"/>
<path d="M63.3613 44.0014V43.724H63.5599V42.6328H63.3613V42.3555H64.8136V42.8773H64.4985V42.6328H63.9882V43.0135H64.4001V43.2925H63.9882V43.724H64.4985V43.4763H64.8136V44.0014H63.3613Z" fill="#006CB6"/>
<path d="M65.5703 44.0014V43.724H65.7902V42.6328H65.5703V42.3555H66.2612L66.8667 43.3827V42.6328H66.655V42.3555H67.3918V42.6328H67.1604V44.0129H66.7945L66.0839 42.792V43.724H66.2907V44.0014H65.5703Z" fill="#006CB6"/>
<path d="M68.3398 43.1953L68.2036 42.7014L68.0543 43.1953H68.3398ZM69.0848 43.7237V44.0011H68.2758V43.7237H68.4859L68.4071 43.4382H67.9804L67.8935 43.7237H68.1117V44.0011H67.3848V43.7237H67.5882L67.9082 42.6325H67.6883V42.3535H68.7648V42.6325H68.5433L68.8879 43.7237H69.0848Z" fill="#006CB6"/>
<path d="M70.516 42.3563H70.7933V42.9356H70.516C70.4356 42.7272 70.2994 42.6222 70.1041 42.6222C69.9417 42.6222 69.8202 42.678 69.7382 42.7879C69.6545 42.8962 69.6135 43.0275 69.6135 43.1817C69.6135 43.3409 69.6578 43.4706 69.7447 43.5707C69.8317 43.6691 69.9433 43.7184 70.0779 43.7184C70.1894 43.7184 70.2863 43.6806 70.3683 43.6068C70.452 43.5313 70.5078 43.4279 70.5373 43.295L70.8622 43.4509C70.7375 43.8316 70.4668 44.0219 70.0483 44.0219C69.7529 44.0219 69.5298 43.9432 69.3788 43.7823C69.2278 43.6232 69.1523 43.4213 69.1523 43.1785C69.1523 43.0045 69.1917 42.8536 69.2705 42.7223C69.3476 42.5926 69.4543 42.4942 69.5856 42.4285C69.7185 42.3629 69.8629 42.3301 70.0204 42.3301C70.2173 42.3301 70.3814 42.3809 70.516 42.4843V42.3563Z" fill="#006CB6"/>
<path d="M70.9824 44.0014V43.724H71.2319V42.6328H70.9824V42.3555H71.9112V42.6328H71.6601V43.724H71.9112V44.0014H70.9824Z" fill="#006CB6"/>
<path d="M72.9951 42.6287C72.8687 42.6287 72.7604 42.6763 72.6734 42.7715C72.5848 42.8667 72.5405 43.0045 72.5405 43.1883C72.5405 43.3508 72.5848 43.4788 72.6718 43.5756C72.7588 43.674 72.8654 43.7216 72.9951 43.7216C73.1214 43.7216 73.2281 43.6757 73.3167 43.5789C73.4053 43.4837 73.4496 43.3475 73.4496 43.1686C73.4496 43.0078 73.407 42.8782 73.3216 42.7781C73.2379 42.6796 73.128 42.6287 72.9951 42.6287ZM72.9951 42.3301C73.279 42.3301 73.5021 42.4121 73.6646 42.5762C73.8287 42.7403 73.9091 42.9405 73.9091 43.1752C73.9091 43.4131 73.8287 43.6133 73.6646 43.7758C73.5005 43.9399 73.279 44.0219 72.9951 44.0219C72.7013 44.0219 72.4749 43.9382 72.3174 43.7692C72.1598 43.6002 72.0811 43.4033 72.0811 43.1752C72.0811 42.9405 72.1615 42.7403 72.3239 42.5762C72.4847 42.4121 72.7096 42.3301 72.9951 42.3301Z" fill="#006CB6"/>
<path d="M74.0967 44.0014V43.724H74.3166V42.6328H74.0967V42.3555H74.7892L75.3947 43.3827V42.6328H75.1814V42.3555H75.9198V42.6328H75.6884V44.0129H75.3209L74.6103 42.792V43.724H74.8171V44.0014H74.0967Z" fill="#006CB6"/>
<path d="M76.8662 43.1953L76.73 42.7014L76.5807 43.1953H76.8662ZM77.6096 43.7237V44.0011H76.8022V43.7237H77.0122L76.9335 43.4382H76.5068L76.4198 43.7237H76.6381V44.0011H75.9111V43.7237H76.1146L76.4346 42.6325H76.2164V42.3535H77.2912V42.6325H77.0697L77.4143 43.7237H77.6096Z" fill="#006CB6"/>
<path d="M77.6768 44.0014V43.724H77.9131V42.6328H77.6768V42.3555H78.5809V42.6328H78.3414V43.724H78.8271V43.2137H79.1487V44.0014H77.6768Z" fill="#006CB6"/>
<path d="M80.5159 43.7237H80.6177C80.7424 43.7237 80.8425 43.7073 80.9147 43.6745C80.9869 43.6417 81.046 43.5843 81.0903 43.5038C81.1346 43.4218 81.1559 43.3151 81.1559 43.1822C81.1559 43.0575 81.1346 42.9508 81.0903 42.8639C81.046 42.7752 80.9853 42.7145 80.9098 42.6817C80.8326 42.6489 80.7358 42.6325 80.6177 42.6325H80.5159V43.7237ZM79.8398 44.0011V43.7237H80.0876V42.6325H79.8398V42.3535H80.6193C80.7834 42.3535 80.9147 42.365 81.0164 42.3847C81.1165 42.4044 81.2117 42.4503 81.3036 42.5193C81.3939 42.5865 81.4677 42.6801 81.5235 42.7966C81.5793 42.9114 81.6072 43.0411 81.6072 43.1822C81.6072 43.2954 81.5875 43.4054 81.5481 43.5088C81.5087 43.6138 81.4611 43.6958 81.4053 43.7598C81.3479 43.8238 81.279 43.8747 81.1986 43.9124C81.1198 43.9486 81.046 43.9732 80.9787 43.9847C80.913 43.9945 80.8097 44.0011 80.6702 44.0011H79.8398Z" fill="#006CB6"/>
<path d="M82.7597 42.6287C82.6334 42.6287 82.5267 42.6763 82.4381 42.7715C82.3495 42.8667 82.3052 43.0045 82.3052 43.1883C82.3052 43.3508 82.3495 43.4788 82.4365 43.5756C82.5234 43.674 82.6301 43.7216 82.7597 43.7216C82.8861 43.7216 82.9928 43.6757 83.0814 43.5789C83.17 43.4837 83.2143 43.3475 83.2143 43.1686C83.2143 43.0078 83.1716 42.8782 83.0863 42.7781C83.0026 42.6796 82.8927 42.6287 82.7597 42.6287ZM82.7597 42.3301C83.0436 42.3301 83.2668 42.4121 83.4309 42.5762C83.5934 42.7403 83.6738 42.9405 83.6738 43.1752C83.6738 43.4131 83.5934 43.6133 83.4293 43.7758C83.2668 43.9399 83.0436 44.0219 82.7597 44.0219C82.466 44.0219 82.2395 43.9382 82.082 43.7692C81.9245 43.6002 81.8457 43.4033 81.8457 43.1752C81.8457 42.9405 81.9261 42.7403 82.0886 42.5762C82.251 42.4121 82.4742 42.3301 82.7597 42.3301Z" fill="#006CB6"/>
<path d="M84.4824 44.0014V43.724H84.681V42.6328H84.4824V42.3555H85.9347V42.8773H85.6196V42.6328H85.1076V43.0135H85.5195V43.2925H85.1076V43.724H85.6196V43.4763H85.9347V44.0014H84.4824Z" fill="#006CB6"/>
<path d="M86.084 44.0014V43.724H86.3039V42.6328H86.084V42.3555H86.7765L87.382 43.3827V42.6328H87.167V42.3555H87.9055V42.6328H87.6757V44.0129H87.3082L86.5976 42.792V43.724H86.8044V44.0014H86.084Z" fill="#006CB6"/>
<path d="M88.0551 44.0018V43.4406H88.3357C88.339 43.5424 88.3653 43.6179 88.4145 43.6654C88.4654 43.7147 88.5228 43.7393 88.5884 43.7393C88.6377 43.7393 88.6803 43.7212 88.7148 43.6868C88.7493 43.6523 88.7673 43.6113 88.7673 43.5637C88.7673 43.5128 88.7509 43.4702 88.7164 43.4357C88.682 43.4012 88.6196 43.3635 88.531 43.3192C88.3407 43.2289 88.211 43.1485 88.1437 43.078C88.0748 43.0074 88.042 42.9122 88.042 42.7924C88.042 42.648 88.0863 42.5364 88.1766 42.4577C88.2668 42.3773 88.3685 42.3379 88.4834 42.3379C88.6147 42.3379 88.7148 42.3888 88.787 42.4921V42.3559H89.0643V42.8564H88.787C88.7788 42.7793 88.7509 42.7186 88.7066 42.6776C88.6623 42.6349 88.6098 42.6136 88.5507 42.6136C88.5064 42.6136 88.467 42.6251 88.4358 42.6497C88.403 42.6743 88.3882 42.7071 88.3882 42.7449C88.3882 42.7793 88.4014 42.8121 88.426 42.8417C88.4522 42.8729 88.5294 42.9155 88.6557 42.9713C88.7772 43.0255 88.869 43.0747 88.9347 43.1174C89.0003 43.1617 89.0512 43.2191 89.0889 43.288C89.1267 43.3586 89.1464 43.4406 89.1464 43.5309C89.1464 43.6933 89.0988 43.8164 89.0036 43.8985C88.9101 43.9805 88.7985 44.0215 88.6688 44.0215C88.5244 44.0215 88.4129 43.9674 88.3357 43.8607V44.0018H88.0551Z" fill="#006CB6"/>
<path d="M89.2822 44.0014V43.724H89.5317V42.6328H89.2822V42.3555H90.2094V42.6328H89.96V43.724H90.2094V44.0014H89.2822Z" fill="#006CB6"/>
<path d="M90.3262 44.0014V43.724H90.5461V42.6328H90.3262V42.3555H91.0187L91.6242 43.3827V42.6328H91.4109V42.3555H92.1493V42.6328H91.9179V44.0129H91.5503L90.8398 42.792V43.724H91.0466V44.0014H90.3262Z" fill="#006CB6"/>
<path d="M93.2158 42.6287C93.0894 42.6287 92.9828 42.6763 92.8942 42.7715C92.8055 42.8667 92.7629 43.0045 92.7629 43.1883C92.7629 43.3508 92.8055 43.4788 92.8925 43.5756C92.9795 43.674 93.0861 43.7216 93.2158 43.7216C93.3421 43.7216 93.4488 43.6757 93.5374 43.5789C93.626 43.4837 93.6703 43.3475 93.6703 43.1686C93.6703 43.0078 93.6277 42.8782 93.5423 42.7781C93.4587 42.6796 93.3503 42.6287 93.2158 42.6287ZM93.2158 42.3301C93.4997 42.3301 93.7228 42.4121 93.8869 42.5762C94.0494 42.7403 94.1315 42.9405 94.1315 43.1752C94.1315 43.4131 94.0494 43.6133 93.8853 43.7758C93.7228 43.9399 93.4997 44.0219 93.2158 44.0219C92.922 44.0219 92.6956 43.9382 92.5381 43.7692C92.3805 43.6002 92.3018 43.4033 92.3018 43.1752C92.3018 42.9405 92.3822 42.7403 92.5446 42.5762C92.7071 42.4121 92.9303 42.3301 93.2158 42.3301Z" fill="#006CB6"/>
<path d="M94.9258 44.0014V43.724H95.1391V42.6328H94.9258V42.3555H95.7512L96.1122 43.3187L96.4749 42.3555H97.3183V42.6328H97.105V43.724H97.3183V44.0014H96.4913V43.724H96.6882V42.6328H96.6488L96.1385 44.0014H95.9612L95.4443 42.6328H95.4066V43.724H95.6216V44.0014H94.9258Z" fill="#006CB6"/>
<path d="M98.0188 42.1981L98.1993 41.8223H98.644L98.2125 42.1981H98.0188ZM97.4658 44.0015V43.7242H97.6644V42.6329H97.4658V42.3539H98.9181V42.8774H98.603V42.6329H98.091V43.0136H98.5029V43.2909H98.091V43.7242H98.603V43.4764H98.9181V44.0015H97.4658Z" fill="#006CB6"/>
<path d="M99.7366 43.7237H99.84C99.9647 43.7237 100.063 43.7073 100.135 43.6745C100.209 43.6417 100.268 43.5843 100.313 43.5038C100.355 43.4218 100.378 43.3151 100.378 43.1822C100.378 43.0575 100.355 42.9508 100.311 42.8639C100.267 42.7752 100.206 42.7145 100.13 42.6817C100.053 42.6489 99.9565 42.6325 99.84 42.6325H99.7366V43.7237ZM99.0605 44.0011V43.7237H99.31V42.6325H99.0605V42.3535H99.84C100.004 42.3535 100.137 42.365 100.237 42.3847C100.337 42.4044 100.432 42.4503 100.524 42.5193C100.616 42.5865 100.69 42.6801 100.744 42.7966C100.8 42.9114 100.828 43.0411 100.828 43.1822C100.828 43.2954 100.808 43.4054 100.77 43.5088C100.731 43.6138 100.683 43.6958 100.626 43.7598C100.569 43.8238 100.5 43.8747 100.421 43.9124C100.341 43.9486 100.268 43.9732 100.201 43.9847C100.134 43.9945 100.03 44.0011 99.8909 44.0011H99.0605Z" fill="#006CB6"/>
<path d="M101.002 44.0014V43.724H101.251V42.6328H101.002V42.3555H101.931V42.6328H101.678V43.724H101.931V44.0014H101.002Z" fill="#006CB6"/>
<path d="M103.016 42.6287C102.889 42.6287 102.781 42.6763 102.694 42.7715C102.605 42.8667 102.561 43.0045 102.561 43.1883C102.561 43.3508 102.605 43.4788 102.692 43.5756C102.779 43.674 102.886 43.7216 103.016 43.7216C103.142 43.7216 103.249 43.6757 103.337 43.5789C103.426 43.4837 103.47 43.3475 103.47 43.1686C103.47 43.0078 103.427 42.8782 103.342 42.7781C103.258 42.6796 103.149 42.6287 103.016 42.6287ZM103.016 42.3301C103.299 42.3301 103.523 42.4121 103.685 42.5762C103.849 42.7403 103.93 42.9405 103.93 43.1752C103.93 43.4131 103.849 43.6133 103.685 43.7758C103.523 43.9399 103.299 44.0219 103.016 44.0219C102.722 44.0219 102.495 43.9382 102.338 43.7692C102.18 43.6002 102.102 43.4033 102.102 43.1752C102.102 42.9405 102.182 42.7403 102.344 42.5762C102.507 42.4121 102.73 42.3301 103.016 42.3301Z" fill="#006CB6"/>
<path d="M61.2553 34.9486C60.9813 34.5203 60.6203 34.2135 60.1739 34.0313C59.7276 33.8475 59.2467 33.8754 58.7348 34.1134C57.7781 34.5614 57.4761 35.372 57.8322 36.5453L61.2553 34.9486ZM62.9373 37.2476L65.2724 36.9539C65.0443 38.6901 64.0253 39.9799 62.2153 40.825C60.7696 41.4978 59.465 41.6422 58.2999 41.2582C57.1364 40.8742 56.2634 40.0619 55.6842 38.8213C55.0951 37.5561 55.0212 36.3074 55.461 35.0717C55.9024 33.836 56.7689 32.9154 58.0603 32.3132C58.9973 31.8767 59.9179 31.7356 60.8221 31.8915C61.7263 32.0474 62.4746 32.4166 63.0686 32.9975C63.6626 33.58 64.1631 34.3054 64.5685 35.1751L58.4673 38.0189C58.8529 38.7459 59.3337 39.1627 59.9113 39.271C60.4873 39.3793 61.0141 39.3218 61.4933 39.0987C62.1201 38.8066 62.6009 38.1896 62.9373 37.2476Z" fill="#006CB6"/>
<path d="M64.585 34.2189V32.1332H68.8515V32.9833C69.7229 32.3285 70.6041 32.002 71.5001 32.002C73.3216 32.002 74.2323 33.1638 74.2323 35.4907V39.091H75.5927V41.1767H71.3442V35.7057C71.3442 35.215 71.2769 34.8786 71.144 34.6981C71.0111 34.5176 70.7928 34.4273 70.4892 34.4273C69.9559 34.4273 69.4095 34.6226 68.8515 35.0164V39.091H70.2398V41.1767H64.585V39.091H65.9634V34.2189H64.585Z" fill="#006CB6"/>
<path d="M82.0519 35.6542C81.9863 35.1488 81.7893 34.7188 81.4611 34.3644C81.1346 34.0099 80.6882 33.8327 80.1237 33.8327C79.0653 33.8327 78.4499 34.4398 78.276 35.6542H82.0519ZM82.6065 38.4488L84.8481 39.1675C83.9062 40.646 82.4375 41.3845 80.4388 41.3845C78.8454 41.3845 77.6015 40.9644 76.7088 40.1226C75.8145 39.284 75.3682 38.178 75.3682 36.8078C75.3682 35.4146 75.8293 34.2495 76.7499 33.3158C77.6721 32.3821 78.847 31.916 80.2714 31.916C81.3052 31.916 82.1979 32.1769 82.9528 32.7004C83.706 33.2239 84.2278 33.8737 84.5216 34.6515C84.8137 35.431 84.9614 36.2991 84.9614 37.2591H78.23C78.2727 38.0795 78.532 38.6605 79.0079 39.0018C79.4838 39.3447 79.9875 39.5154 80.5159 39.5154C81.2068 39.5154 81.9042 39.1593 82.6065 38.4488Z" fill="#006CB6"/>
<path d="M85.2568 34.2189V32.1332H89.6383V32.87C90.6229 32.2908 91.5992 32.002 92.5707 32.002C93.7342 32.002 94.6383 32.4138 95.28 33.2376C96.4434 32.4138 97.661 32.002 98.9312 32.002C99.6844 32.002 100.296 32.1398 100.767 32.4171C101.237 32.6928 101.558 33.0653 101.734 33.5313C101.908 33.9974 101.995 34.7047 101.995 35.6482V39.091H103.487V41.1767H99.1067V35.8845C99.1067 34.9377 98.6998 34.4651 97.8826 34.4651C97.2426 34.4651 96.5484 34.6702 95.8018 35.0821V39.091H97.2934V41.1767H92.912V35.9682C92.912 34.9672 92.5215 34.4651 91.7371 34.4651C91.1283 34.4651 90.4276 34.6702 89.6383 35.0821V39.091H91.1299V41.1767H85.2568V39.091H86.7485V34.2189H85.2568Z" fill="#006CB6"/>
<path d="M10.971 54.5673C0.714858 42.9721 1.79791 25.2594 13.3931 15.0032C24.9866 4.74542 42.6994 5.82847 52.9572 17.4237C56.482 21.4096 58.6695 26.1192 59.5474 30.9995C58.8172 25.2511 56.4115 19.6554 52.2844 14.9901C41.344 2.62363 22.453 1.46674 10.0865 12.4072C-2.2783 23.346 -3.43519 42.2403 7.50361 54.6051C16.209 64.4444 29.9523 67.1865 41.4326 62.3833C30.9582 66.1379 18.7952 63.4106 10.971 54.5673Z" fill="#00AEEF"/>
<path d="M55.9176 12.9037C52.4682 6.97314 47.3336 2.62945 41.4736 0.126953C41.5196 1.10334 41.5311 2.08957 41.5015 3.08236C47.4353 5.342 52.6635 9.57081 56.1046 15.4882C58.85 20.2077 60.1021 25.385 60.0036 30.472C60.4254 24.5415 59.1323 18.4288 55.9176 12.9037Z" fill="#0095DA"/>
<path d="M42.1955 12.9752C36.5538 11.1472 30.7431 11.3129 25.5264 13.0819C26.1204 13.6841 26.6947 14.3126 27.2494 14.9674C32.3742 12.9998 38.1783 12.7077 43.8053 14.5309C48.295 15.9848 52.089 18.5972 54.959 21.9268C51.81 17.867 47.4515 14.6786 42.1955 12.9752Z" fill="#8ED8F8"/>
<path d="M24.5649 56.1459C22.7205 51.177 23.4097 38.5825 33.9514 34.7032C40.8287 32.1728 32.4975 23.7923 32.9898 17.6484C38.4214 32.4485 57.6373 35.4515 58.9698 33.9582C56.5034 37.1482 44.9657 33.1492 44.3979 37.4764C44.2141 38.8795 47.9916 39.9494 48.2936 46.9105C45.6122 44.1487 32.4417 27.6223 24.5649 56.1459Z" fill="#FFCB04"/>
<path d="M52.1039 33.4945C49.4209 34.4283 45.8961 35.0929 42.8783 33.6554C37.491 31.7042 34.0383 22.0503 32.9865 17.7148C32.5582 23.8521 40.8025 32.1801 33.9514 34.7023C23.4097 38.5816 22.7205 51.1761 24.5649 56.145C32.4417 27.6215 45.6122 44.1478 48.2936 46.9096C47.9916 39.9485 44.2141 38.8786 44.3979 37.4756C44.9657 33.1483 56.5034 37.1474 58.9698 33.9557C58.4923 34.4923 55.7174 34.448 52.1039 33.4945Z" fill="#AB1C30"/>
<path d="M32.9865 17.7148C32.5582 23.8521 40.8025 32.1818 33.9514 34.7023C23.4097 38.5816 22.7205 51.1761 24.5649 56.145C24.6798 55.7299 24.7947 55.3278 24.9112 54.9323C25.3772 39.6285 32.8043 37.8431 38.4854 36.765C40.3348 36.4155 41.7116 35.106 42.8357 33.6389C37.4729 31.6501 34.0351 22.0388 32.9865 17.7148Z" fill="#ED1C24"/>
<path d="M51.9058 24.6665L50.104 25.1539L50.0663 23.421L49.638 24.4056L47.4834 22.4922C47.4834 22.4922 48.0593 23.7557 47.9658 23.718C47.8723 23.6819 44.0094 22.5102 44.0094 22.5102L45.5322 23.7377L42.6523 24.1463L44.1013 25.0193L41.7793 26.2632L43.4695 26.5618L42.206 27.2674L43.4613 27.2002C43.504 28.4293 44.2424 29.5829 45.4502 30.0932C45.5158 30.1211 45.5798 30.1457 45.6455 30.1687C45.6684 30.1835 45.6914 30.195 45.7177 30.2065L47.4752 31.1435C47.6639 31.2222 47.8706 31.1648 47.9346 31.0138C47.9346 31.0138 48.2136 30.5707 48.5615 30.0145L49.4082 30.0374L49.5576 28.4047C49.761 28.0699 49.9005 27.8336 49.8989 27.8205C49.9563 27.5677 49.9826 27.315 49.9809 27.064L51.9058 24.6665Z" fill="#231F20"/>
<path d="M55.7471 45.9512V45.5098H56.9909V45.9512H56.7349V47.1261C56.7349 47.2837 56.7415 47.3969 56.7546 47.4658C56.7678 47.5347 56.8022 47.5922 56.858 47.6381C56.9138 47.6824 56.9844 47.7054 57.0697 47.7054C57.1583 47.7054 57.2322 47.6841 57.2912 47.6414C57.3487 47.5987 57.3864 47.5462 57.4028 47.4822C57.4209 47.4182 57.4291 47.2886 57.4291 47.0933V45.9512H57.1747V45.5098H58.2135V45.9512H57.8968V47.2525C57.8968 47.4297 57.8869 47.5577 57.8672 47.6398C57.8492 47.7202 57.8065 47.7989 57.7392 47.8793C57.6703 47.9581 57.5735 48.0221 57.4455 48.0713C57.3175 48.1206 57.1698 48.1452 57.0041 48.1452C56.8121 48.1452 56.6496 48.1173 56.5134 48.0631C56.3788 48.009 56.2771 47.9368 56.2115 47.8482C56.1458 47.7579 56.1015 47.6693 56.0835 47.5807C56.0654 47.4921 56.0556 47.3411 56.0556 47.1278V45.9512H55.7471Z" fill="#CA1E3C"/>
<path d="M58.3779 48.114V47.6742H58.716V45.9512H58.3779V45.5098H59.6825L60.2569 47.0359L60.8296 45.5098H62.162V45.9512H61.8256V47.6742H62.162V48.114H60.8509V47.6742H61.166V45.9512H61.1052L60.2979 48.114H60.0173L59.2001 45.9512H59.1393V47.6742H59.4807V48.114H58.3779Z" fill="#CA1E3C"/>
<path d="M63.3545 48.114V47.6742H63.6679V45.9512H63.3545V45.5098H65.6519V46.3368H65.153V45.9512H64.3473V46.5501H64.9988V46.9899H64.3473V47.6742H65.153V47.2837H65.6519V48.114H63.3545Z" fill="#CA1E3C"/>
<path d="M65.8896 48.114V47.6742H66.2359V45.9512H65.8896V45.5098H66.9842L67.9409 47.1343V45.9512H67.6012V45.5098H68.7712V45.9512H68.4053V48.1337H67.8244L66.7019 46.2023V47.6742H67.0301V48.114H65.8896Z" fill="#CA1E3C"/>
<path d="M69.0044 48.1149V47.2271H69.4475C69.4524 47.3896 69.4951 47.5093 69.5738 47.5865C69.6542 47.662 69.7445 47.7013 69.8479 47.7013C69.9283 47.7013 69.9956 47.6734 70.0497 47.6177C70.1039 47.5619 70.1318 47.4979 70.1318 47.4224C70.1318 47.342 70.1055 47.2747 70.0514 47.2205C69.9972 47.1664 69.9004 47.104 69.7576 47.0351C69.4557 46.8907 69.2506 46.7627 69.1423 46.6511C69.0356 46.5395 68.9814 46.3886 68.9814 46.1998C68.9814 45.9734 69.0536 45.7962 69.1948 45.6714C69.3375 45.5467 69.5 45.4844 69.6805 45.4844C69.8873 45.4844 70.0481 45.5648 70.1613 45.7272V45.5106H70.6027V46.3032H70.1613C70.1465 46.1802 70.1055 46.0866 70.035 46.0177C69.9644 45.9521 69.8823 45.9176 69.7888 45.9176C69.7166 45.9176 69.6559 45.9373 69.605 45.9767C69.5558 46.0144 69.5312 46.0653 69.5312 46.1276C69.5312 46.1818 69.5509 46.2327 69.5919 46.2803C69.6346 46.3295 69.7543 46.3968 69.9545 46.4854C70.1465 46.5707 70.2942 46.6478 70.3976 46.7168C70.501 46.7873 70.583 46.8759 70.6421 46.9875C70.7028 47.0975 70.7324 47.2255 70.7324 47.3699C70.7324 47.6275 70.6569 47.8211 70.5076 47.9508C70.3566 48.0821 70.1794 48.1461 69.9742 48.1461C69.7478 48.1461 69.5706 48.0607 69.4475 47.8917V48.1149H69.0044Z" fill="#CA1E3C"/>
<path d="M72.3636 46.8452L72.1453 46.0592L71.9123 46.8452H72.3636ZM73.5418 47.6723V48.1137H72.2602V47.6723H72.5933L72.4702 47.2259H71.7942L71.6547 47.6723H72.0026V48.1137H70.8506V47.6723H71.1722L71.6793 45.9492H71.333V45.5078H73.0347V45.9492H72.6836L73.23 47.6723H73.5418Z" fill="#CA1E3C"/>
<path d="M73.6221 48.114V47.6742H74.0175V45.9512H73.6221V45.5098H75.0957V45.9512H74.6969V47.6742H75.0957V48.114H73.6221Z" fill="#CA1E3C"/>
<path d="M76.809 45.9427C76.6104 45.9427 76.4398 46.0182 76.3019 46.1675C76.1624 46.3185 76.0935 46.5367 76.0935 46.8272C76.0935 47.0832 76.1608 47.2866 76.2986 47.4409C76.4365 47.5935 76.6055 47.6706 76.809 47.6706C77.0092 47.6706 77.1782 47.5968 77.3193 47.4458C77.4572 47.2949 77.5277 47.0782 77.5277 46.7944C77.5277 46.5416 77.4605 46.3365 77.3275 46.179C77.1946 46.0214 77.0223 45.9427 76.809 45.9427ZM76.8106 45.4668C77.2603 45.4668 77.6131 45.5964 77.8707 45.8557C78.1283 46.1166 78.258 46.4333 78.258 46.8058C78.258 47.18 78.1283 47.4967 77.8691 47.756C77.6114 48.0152 77.2586 48.1449 76.8106 48.1449C76.3446 48.1449 75.9869 48.012 75.7374 47.7445C75.488 47.4786 75.3633 47.1652 75.3633 46.8058C75.3633 46.4333 75.4913 46.1183 75.7489 45.8574C76.0033 45.5964 76.3577 45.4668 76.8106 45.4668Z" fill="#CA1E3C"/>
<path d="M80.5326 46.7336H80.6344C80.8658 46.7336 81.0151 46.6959 81.0824 46.6204C81.1497 46.5449 81.1825 46.4514 81.1825 46.3398C81.1825 46.2446 81.1595 46.1626 81.1136 46.0969C81.0676 46.0296 81.0151 45.9886 80.9544 45.9739C80.8937 45.9574 80.7968 45.9492 80.659 45.9492H80.5326V46.7336ZM80.8969 47.6723V48.1137H79.5234V47.6723H79.8533V45.9492H79.5234V45.5078H80.8969C81.2169 45.5078 81.4631 45.5833 81.637 45.7343C81.811 45.8836 81.8996 46.0854 81.8996 46.3382C81.8996 46.4826 81.8684 46.6155 81.8077 46.732C81.7453 46.8518 81.6682 46.9404 81.5714 47.0044C81.4762 47.0667 81.3663 47.1111 81.2432 47.134C81.1201 47.157 80.9675 47.1685 80.7821 47.1685H80.5326V47.6723H80.8969Z" fill="#CA1E3C"/>
<path d="M83.1829 46.8452L82.9647 46.0592L82.7316 46.8452H83.1829ZM84.3611 47.6723V48.1137H83.0795V47.6723H83.4126L83.2896 47.2259H82.6135L82.474 47.6723H82.8219V48.1137H81.6699V47.6723H81.9916L82.4986 45.9492H82.1524V45.5078H83.8541V45.9492H83.5029L84.0493 47.6723H84.3611Z" fill="#CA1E3C"/>
<path d="M85.4798 46.558H85.7112C86 46.558 86.1428 46.4547 86.1428 46.2512C86.1428 46.1494 86.1099 46.074 86.0443 46.0247C85.9787 45.9739 85.8884 45.9492 85.7735 45.9492H85.4798V46.558ZM87.1585 47.6723V48.1137H86.3659L85.7768 46.9749H85.4798V47.6723H85.8047V48.1137H84.4443V47.6723H84.8004V45.9492H84.4443V45.5078H86.0148C86.3101 45.5078 86.5235 45.5833 86.6547 45.7326C86.786 45.882 86.85 46.051 86.85 46.2397C86.85 46.5367 86.7007 46.7517 86.3987 46.8879L86.8221 47.6723H87.1585Z" fill="#CA1E3C"/>
<path d="M88.6565 46.8452L88.4383 46.0592L88.2036 46.8452H88.6565ZM89.8348 47.6723V48.1137H88.5532V47.6723H88.8863L88.7632 47.2259H88.0855L87.9476 47.6723H88.2955V48.1137H87.1436V47.6723H87.4652L87.9723 45.9492H87.626V45.5078H89.3277V45.9492H88.9765L89.523 47.6723H89.8348Z" fill="#CA1E3C"/>
<path d="M92.2933 46.8452L92.075 46.0592L91.842 46.8452H92.2933ZM93.4715 47.6723V48.1137H92.1899V47.6723H92.523L92.3999 47.2259H91.7238L91.586 47.6723H91.9322V48.1137H90.7803V47.6723H91.1019L91.609 45.9492H91.2627V45.5078H92.9644V45.9492H92.6133L93.1597 47.6723H93.4715Z" fill="#CA1E3C"/>
<path d="M95.1225 48.1321L94.3463 45.9512H94.0361V45.5098H95.3637V45.9512H95.0273L95.4654 47.2574L95.9069 45.9512H95.5754V45.5098H96.729V45.9512H96.4106L95.664 48.1321H95.1225Z" fill="#CA1E3C"/>
<path d="M96.8057 48.114V47.6742H97.1995V45.9512H96.8057V45.5098H98.2776V45.9512H97.8789V47.6742H98.2776V48.114H96.8057Z" fill="#CA1E3C"/>
<path d="M99.5188 47.6723H99.6813C99.8782 47.6723 100.034 47.6477 100.149 47.5968C100.264 47.5459 100.357 47.4557 100.428 47.326C100.497 47.1964 100.533 47.029 100.533 46.819C100.533 46.622 100.497 46.453 100.426 46.3152C100.356 46.1757 100.261 46.0805 100.141 46.028C100.019 45.9755 99.8667 45.9492 99.6813 45.9492H99.5188V47.6723ZM98.4473 48.1137V47.6723H98.8411V45.9492H98.4473V45.5078H99.6813C99.9406 45.5078 100.149 45.5242 100.308 45.557C100.466 45.5882 100.618 45.6588 100.763 45.7687C100.907 45.877 101.024 46.0247 101.111 46.2069C101.198 46.3907 101.242 46.5941 101.242 46.8173C101.242 46.9978 101.212 47.1718 101.15 47.3359C101.089 47.5 101.014 47.6312 100.922 47.733C100.832 47.8331 100.723 47.9135 100.597 47.9726C100.472 48.0316 100.356 48.0694 100.251 48.0874C100.146 48.1055 99.9816 48.1137 99.7617 48.1137H98.4473Z" fill="#CA1E3C"/>
<path d="M102.822 46.8452L102.603 46.0592L102.37 46.8452H102.822ZM104 47.6723V48.1137H102.718V47.6723H103.051L102.928 47.2259H102.252L102.113 47.6723H102.461V48.1137H101.309V47.6723H101.63L102.137 45.9492H101.791V45.5078H103.493V45.9492H103.142L103.688 47.6723H104Z" fill="#CA1E3C"/>
</svg>
