<svg width="85" height="28" viewBox="0 0 85 28" fill="none" xmlns="http://www.w3.org/2000/svg">
<path d="M38.4453 14.0156H42.4375V19.5547C41.8385 19.7578 41.2214 19.9089 40.5859 20.0078C39.9557 20.1068 39.25 20.1562 38.4688 20.1562C37.2812 20.1562 36.2786 19.9193 35.4609 19.4453C34.6484 18.9714 34.0312 18.2969 33.6094 17.4219C33.1875 16.5417 32.9766 15.4974 32.9766 14.2891C32.9766 13.1068 33.2083 12.0755 33.6719 11.1953C34.1406 10.3151 34.8151 9.63281 35.6953 9.14844C36.5807 8.65885 37.6432 8.41406 38.8828 8.41406C39.5182 8.41406 40.1198 8.47396 40.6875 8.59375C41.2604 8.70833 41.7917 8.8724 42.2812 9.08594L41.7734 10.2422C41.3516 10.0599 40.8854 9.90365 40.375 9.77344C39.8698 9.64323 39.3464 9.57812 38.8047 9.57812C37.8724 9.57812 37.0729 9.77083 36.4062 10.1562C35.7448 10.5417 35.237 11.0859 34.8828 11.7891C34.5339 12.4922 34.3594 13.3255 34.3594 14.2891C34.3594 15.2422 34.513 16.0729 34.8203 16.7812C35.1276 17.4844 35.6068 18.0312 36.2578 18.4219C36.9089 18.8125 37.7474 19.0078 38.7734 19.0078C39.2891 19.0078 39.7318 18.9792 40.1016 18.9219C40.4714 18.8594 40.8073 18.7865 41.1094 18.7031V15.2031H38.4453V14.0156ZM52.3906 15.7031C52.3906 16.4062 52.2995 17.0339 52.1172 17.5859C51.9349 18.138 51.6719 18.6042 51.3281 18.9844C50.9844 19.3646 50.5677 19.6562 50.0781 19.8594C49.5938 20.0573 49.0443 20.1562 48.4297 20.1562C47.8568 20.1562 47.3307 20.0573 46.8516 19.8594C46.3776 19.6562 45.9661 19.3646 45.6172 18.9844C45.2734 18.6042 45.0052 18.138 44.8125 17.5859C44.625 17.0339 44.5312 16.4062 44.5312 15.7031C44.5312 14.7656 44.6901 13.9688 45.0078 13.3125C45.3255 12.651 45.7786 12.1484 46.3672 11.8047C46.9609 11.4557 47.6667 11.2812 48.4844 11.2812C49.2656 11.2812 49.9479 11.4557 50.5312 11.8047C51.1198 12.1536 51.5755 12.6589 51.8984 13.3203C52.2266 13.9766 52.3906 14.7708 52.3906 15.7031ZM45.875 15.7031C45.875 16.3906 45.9661 16.987 46.1484 17.4922C46.3307 17.9974 46.612 18.388 46.9922 18.6641C47.3724 18.9401 47.862 19.0781 48.4609 19.0781C49.0547 19.0781 49.5417 18.9401 49.9219 18.6641C50.3073 18.388 50.5911 17.9974 50.7734 17.4922C50.9557 16.987 51.0469 16.3906 51.0469 15.7031C51.0469 15.0208 50.9557 14.4323 50.7734 13.9375C50.5911 13.4375 50.3099 13.0521 49.9297 12.7812C49.5495 12.5104 49.0573 12.375 48.4531 12.375C47.5625 12.375 46.9089 12.6693 46.4922 13.2578C46.0807 13.8464 45.875 14.6615 45.875 15.7031ZM62.0156 15.7031C62.0156 16.4062 61.9245 17.0339 61.7422 17.5859C61.5599 18.138 61.2969 18.6042 60.9531 18.9844C60.6094 19.3646 60.1927 19.6562 59.7031 19.8594C59.2188 20.0573 58.6693 20.1562 58.0547 20.1562C57.4818 20.1562 56.9557 20.0573 56.4766 19.8594C56.0026 19.6562 55.5911 19.3646 55.2422 18.9844C54.8984 18.6042 54.6302 18.138 54.4375 17.5859C54.25 17.0339 54.1562 16.4062 54.1562 15.7031C54.1562 14.7656 54.3151 13.9688 54.6328 13.3125C54.9505 12.651 55.4036 12.1484 55.9922 11.8047C56.5859 11.4557 57.2917 11.2812 58.1094 11.2812C58.8906 11.2812 59.5729 11.4557 60.1562 11.8047C60.7448 12.1536 61.2005 12.6589 61.5234 13.3203C61.8516 13.9766 62.0156 14.7708 62.0156 15.7031ZM55.5 15.7031C55.5 16.3906 55.5911 16.987 55.7734 17.4922C55.9557 17.9974 56.237 18.388 56.6172 18.6641C56.9974 18.9401 57.487 19.0781 58.0859 19.0781C58.6797 19.0781 59.1667 18.9401 59.5469 18.6641C59.9323 18.388 60.2161 17.9974 60.3984 17.4922C60.5807 16.987 60.6719 16.3906 60.6719 15.7031C60.6719 15.0208 60.5807 14.4323 60.3984 13.9375C60.2161 13.4375 59.9349 13.0521 59.5547 12.7812C59.1745 12.5104 58.6823 12.375 58.0781 12.375C57.1875 12.375 56.5339 12.6693 56.1172 13.2578C55.7057 13.8464 55.5 14.6615 55.5 15.7031ZM66.6484 23.8438C65.5234 23.8438 64.6562 23.6328 64.0469 23.2109C63.4375 22.7943 63.1328 22.2083 63.1328 21.4531C63.1328 20.9167 63.3021 20.4583 63.6406 20.0781C63.9844 19.6979 64.4583 19.4453 65.0625 19.3203C64.8385 19.2161 64.6458 19.0599 64.4844 18.8516C64.3281 18.6432 64.25 18.4036 64.25 18.1328C64.25 17.8203 64.3359 17.5469 64.5078 17.3125C64.6849 17.0729 64.9531 16.8438 65.3125 16.625C64.8646 16.4427 64.5 16.1354 64.2188 15.7031C63.9427 15.2656 63.8047 14.7578 63.8047 14.1797C63.8047 13.5651 63.9323 13.0417 64.1875 12.6094C64.4427 12.1719 64.8125 11.8385 65.2969 11.6094C65.7812 11.3802 66.3672 11.2656 67.0547 11.2656C67.2057 11.2656 67.3568 11.2734 67.5078 11.2891C67.6641 11.2995 67.8125 11.3177 67.9531 11.3438C68.0938 11.3646 68.2161 11.3906 68.3203 11.4219H71.2578V12.2578L69.6797 12.4531C69.8359 12.6562 69.9661 12.901 70.0703 13.1875C70.1745 13.474 70.2266 13.7917 70.2266 14.1406C70.2266 14.9948 69.9375 15.6745 69.3594 16.1797C68.7812 16.6797 67.987 16.9297 66.9766 16.9297C66.737 16.9297 66.4922 16.9089 66.2422 16.8672C65.987 17.0078 65.7917 17.1641 65.6562 17.3359C65.526 17.5078 65.4609 17.7057 65.4609 17.9297C65.4609 18.0964 65.5104 18.2292 65.6094 18.3281C65.7135 18.4271 65.862 18.5 66.0547 18.5469C66.2474 18.5885 66.4792 18.6094 66.75 18.6094H68.2578C69.1901 18.6094 69.9036 18.8047 70.3984 19.1953C70.8984 19.5859 71.1484 20.1562 71.1484 20.9062C71.1484 21.8542 70.763 22.5807 69.9922 23.0859C69.2214 23.5911 68.1068 23.8438 66.6484 23.8438ZM66.6875 22.8281C67.3958 22.8281 67.9818 22.7552 68.4453 22.6094C68.9141 22.4688 69.263 22.263 69.4922 21.9922C69.7266 21.7266 69.8438 21.4089 69.8438 21.0391C69.8438 20.6953 69.7656 20.4349 69.6094 20.2578C69.4531 20.0859 69.224 19.9714 68.9219 19.9141C68.6198 19.8516 68.25 19.8203 67.8125 19.8203H66.3281C65.9427 19.8203 65.6068 19.8802 65.3203 20C65.0339 20.1198 64.8125 20.2969 64.6562 20.5312C64.5052 20.7656 64.4297 21.0573 64.4297 21.4062C64.4297 21.8698 64.625 22.2214 65.0156 22.4609C65.4062 22.7057 65.9635 22.8281 66.6875 22.8281ZM67.0234 15.9844C67.6432 15.9844 68.1094 15.8281 68.4219 15.5156C68.7344 15.2031 68.8906 14.7474 68.8906 14.1484C68.8906 13.5078 68.7318 13.0286 68.4141 12.7109C68.0964 12.388 67.6276 12.2266 67.0078 12.2266C66.4141 12.2266 65.9557 12.3932 65.6328 12.7266C65.3151 13.0547 65.1562 13.5365 65.1562 14.1719C65.1562 14.7552 65.3177 15.2031 65.6406 15.5156C65.9635 15.8281 66.4245 15.9844 67.0234 15.9844ZM74.25 20H72.9453V7.84375H74.25V20ZM80.2891 11.2812C81.0182 11.2812 81.6432 11.4427 82.1641 11.7656C82.6849 12.0885 83.0833 12.5417 83.3594 13.125C83.6354 13.7031 83.7734 14.3802 83.7734 15.1562V15.9609H77.8594C77.875 16.9661 78.125 17.7318 78.6094 18.2578C79.0938 18.7839 79.776 19.0469 80.6562 19.0469C81.1979 19.0469 81.6771 18.9974 82.0938 18.8984C82.5104 18.7995 82.9427 18.6536 83.3906 18.4609V19.6016C82.9583 19.7943 82.5286 19.9349 82.1016 20.0234C81.6797 20.112 81.1797 20.1562 80.6016 20.1562C79.7786 20.1562 79.0599 19.9896 78.4453 19.6562C77.8359 19.3177 77.362 18.8229 77.0234 18.1719C76.6849 17.5208 76.5156 16.724 76.5156 15.7812C76.5156 14.8594 76.6693 14.0625 76.9766 13.3906C77.2891 12.7135 77.7266 12.1927 78.2891 11.8281C78.8568 11.4635 79.5234 11.2812 80.2891 11.2812ZM80.2734 12.3438C79.5807 12.3438 79.0286 12.5703 78.6172 13.0234C78.2057 13.4766 77.9609 14.1094 77.8828 14.9219H82.4141C82.4089 14.4115 82.3281 13.9635 82.1719 13.5781C82.0208 13.1875 81.7891 12.8854 81.4766 12.6719C81.1641 12.4531 80.763 12.3438 80.2734 12.3438Z" fill="#5E72E4"/>
<path fill-rule="evenodd" clip-rule="evenodd" d="M17.6927 16.3465C17.6927 15.7653 17.6353 15.206 17.5286 14.6697H9.02686V17.8409H13.8849C13.6757 18.8657 13.0396 19.7338 12.0838 20.3154V22.3722H15.001C16.7081 20.9448 17.6927 18.8431 17.6927 16.3465V16.3465Z" fill="#4285F4"/>
<path fill-rule="evenodd" clip-rule="evenodd" d="M9.02677 24.3585C11.464 24.3585 13.5073 23.6245 15.001 22.3722L12.0837 20.3153C11.2755 20.8072 10.2412 21.098 9.02677 21.098C6.67558 21.098 4.68584 19.656 3.97593 17.718H0.959961V19.8422C2.44519 22.5216 5.49788 24.3585 9.02677 24.3585V24.3585Z" fill="#34A853"/>
<path fill-rule="evenodd" clip-rule="evenodd" d="M3.97603 17.718C3.79549 17.2261 3.69298 16.7005 3.69298 16.1603C3.69298 15.6201 3.79549 15.0945 3.97603 14.6026V12.4784H0.960061C0.348835 13.5852 0 14.8375 0 16.1603C0 17.4831 0.348835 18.7355 0.960061 19.8422L3.97603 17.718V17.718Z" fill="#FBBC05"/>
<path fill-rule="evenodd" clip-rule="evenodd" d="M9.02677 11.2226C10.3521 11.2226 11.5421 11.6363 12.4776 12.4485L15.0667 10.0971C13.5031 8.77457 11.4598 7.96204 9.02677 7.96204C5.49826 7.96204 2.44519 9.79935 0.959961 12.4784L3.97593 14.6026C4.68584 12.6649 6.67596 11.2226 9.02677 11.2226Z" fill="#EA4335"/>
</svg>
